<svg id="Layer_5" enable-background="new 0 0 64 64" height="512" viewBox="0 0 64 64" width="512" xmlns="http://www.w3.org/2000/svg" xmlns:xlink="http://www.w3.org/1999/xlink"><linearGradient id="SVGID_1_" gradientUnits="userSpaceOnUse" x1="32" x2="32" y1="63.001" y2="1"><stop offset="0" stop-color="#9f2fff"/><stop offset="1" stop-color="#0bb1d3"/></linearGradient><path d="m56 48c1.654 0 3-1.346 3-3s-1.346-3-3-3-3 1.346-3 3 1.346 3 3 3zm0-4c.551 0 1 .449 1 1s-.449 1-1 1-1-.449-1-1 .449-1 1-1zm-2-29c-.537 0-1.076.05-1.611.148-1.113-2.483-3.618-4.148-6.389-4.148-.8 0-1.595.139-2.345.405-2.638-6.266-8.798-10.405-15.655-10.405-8.341 0-15.357 5.983-16.748 14.089-.417-.059-.835-.089-1.252-.089-4.962 0-9 4.038-9 9 0 4.098 2.757 7.559 6.511 8.642-.631.499-1.244 1.029-1.811 1.623-3.238 3.393-4.9 7.85-4.681 12.549.401 8.598 7.447 15.697 16.04 16.161.318.017.635.025.951.025 5.261 0 10.118-2.372 13.35-6.494.472.311 1.034.494 1.64.494 1.654 0 3-1.346 3-3v-5h7.843c1.58 3.617 5.174 6 9.157 6 2.725 0 5.272-1.077 7.172-3.031 1.899-1.954 2.902-4.532 2.824-7.26-.147-5.189-4.489-9.542-9.677-9.704-4.145-.137-7.847 2.255-9.476 5.995h-9.606c-.982-3.197-2.849-5.943-5.296-8h25.059c4.962 0 9-4.038 9-9s-4.038-9-9-9zm-41.088 16.897c-1.043 1.329-1.916 3.073-2.576 5.103h-4.327c.353-.468.727-.923 1.138-1.354 1.637-1.716 3.608-2.973 5.765-3.749zm10.639 5.103h-11.097c1.292-3.613 3.314-6 5.546-6 2.182 0 4.238 2.348 5.551 6zm-5.521 23.996c-.026 0-.053-.002-.079-.002-2.213-.035-4.215-2.409-5.497-5.995h9.731c.175.49.47.917.854 1.252-1.329 2.961-3.166 4.726-5.009 4.745zm3.97-7.996h-10.159c-.462-1.821-.746-3.858-.816-6h5.925c.154.128.314.25.498.342l3.316 1.658h1.236zm-18.956-6h5.982c.063 2.139.322 4.16.752 6h-5.004c-.978-1.82-1.588-3.853-1.73-6zm-.004-2c.138-2.121.722-4.152 1.701-6h5.036c-.43 1.84-.688 3.861-.752 6zm12.96 0h-4.976c.07-2.142.354-4.179.816-6h12.32c.163.641.308 1.307.426 2h-3.822l-3.316 1.658c-.893.446-1.448 1.343-1.448 2.342zm-9.937 10h4.273c.658 2.023 1.528 3.762 2.566 5.089-2.732-1.006-5.1-2.799-6.839-5.089zm16.991 5.134c.685-.866 1.301-1.926 1.84-3.145.036.002.07.011.106.011 1.654 0 3-1.346 3-3v-1h2v1c0 .285.053.556.128.817-1.814 2.497-4.272 4.323-7.074 5.317zm10.946-6.134c0 .551-.449 1-1 1s-1-.449-1-1v-3h-6v3c0 .551-.449 1-1 1s-1-.449-1-1v-5h10zm11.229-11 .236-.666c1.167-3.296 4.28-5.438 7.79-5.33 4.15.129 7.623 3.611 7.741 7.762.063 2.183-.74 4.246-2.259 5.809-1.519 1.564-3.557 2.425-5.737 2.425-3.377 0-6.405-2.144-7.534-5.334l-.237-.666h-23.993l-2.895-1.447c-.21-.106-.341-.317-.341-.553s.131-.447.342-.553l2.894-1.447zm-18.622-2c-.108-.688-.233-1.358-.381-2h5.039c.337.64.637 1.305.882 2zm3.389-4h-4.324c-.659-2.051-1.533-3.781-2.566-5.1 2.748.994 5.141 2.772 6.89 5.1zm24.004-6h-28.001c-2.403-1.281-5.132-2-7.999-2-2.848 0-5.573.699-8.003 2-3.858-.001-6.997-3.141-6.997-7 0-3.86 3.14-7 7-7 .612 0 1.229.083 1.834.247l1.13.306.125-1.165c.816-7.633 7.226-13.388 14.911-13.388 6.37 0 12.059 4.05 14.156 10.077l.39 1.122 1.039-.575c.736-.409 1.571-.624 2.415-.624 2.208 0 4.181 1.482 4.798 3.604l.28.961.96-.28c.647-.189 1.307-.285 1.962-.285 3.86 0 7 3.14 7 7s-3.14 7-7 7zm-26-26c3.17 0 6.224 1.154 8.599 3.25l-1.323 1.5c-2.009-1.773-4.593-2.75-7.276-2.75s-5.267.977-7.275 2.75l-1.324-1.5c2.375-2.096 5.429-3.25 8.599-3.25zm-10.56 5.416 1.624 1.168c-.414.575-.773 1.192-1.067 1.833l-1.817-.834c.347-.758.771-1.487 1.26-2.167zm6.56 8.584c-1.654 0-3 1.346-3 3s1.346 3 3 3 3-1.346 3-3-1.346-3-3-3zm0 4c-.551 0-1-.449-1-1s.449-1 1-1 1 .449 1 1-.449 1-1 1zm8-4c-1.654 0-3 1.346-3 3s1.346 3 3 3 3-1.346 3-3-1.346-3-3-3zm0 4c-.551 0-1-.449-1-1s.449-1 1-1 1 .449 1 1-.449 1-1 1zm8-4c-1.654 0-3 1.346-3 3s1.346 3 3 3 3-1.346 3-3-1.346-3-3-3zm0 4c-.551 0-1-.449-1-1s.449-1 1-1 1 .449 1 1-.449 1-1 1zm-30-4v2c-1.654 0-3 1.346-3 3h-2c0-2.757 2.243-5 5-5zm47 5h2c0 2.757-2.243 5-5 5h-6v-2h6c1.654 0 3-1.346 3-3zm-13 3h2v2h-2z" fill="url(#SVGID_1_)"/></svg>