<?xml version="1.0" encoding="iso-8859-1"?>
<!-- Generator: Adobe Illustrator 19.0.0, SVG Export Plug-In . SVG Version: 6.00 Build 0)  -->
<svg version="1.1" id="Layer_1" xmlns="http://www.w3.org/2000/svg" xmlns:xlink="http://www.w3.org/1999/xlink" x="0px" y="0px"
	 viewBox="0 0 512 512" style="enable-background:new 0 0 512 512;" xml:space="preserve">
<rect x="260.65" y="29.498" style="fill:#F7BA35;" width="251.35" height="160.37"/>
<rect x="386.32" y="29.498" style="fill:#FD9702;" width="125.68" height="160.37"/>
<polygon style="fill:#FBDA35;" points="386.323,59.906 260.646,189.87 512,189.87 "/>
<polygon style="fill:#F7BA35;" points="386.323,59.906 386.323,189.87 512,189.87 "/>
<polygon style="fill:#FDE888;" points="260.646,29.498 386.323,135.538 512,29.498 "/>
<polygon style="fill:#FBDA35;" points="386.323,29.498 386.323,135.538 512,29.498 "/>
<circle style="fill:#A9F0F0;" cx="180.37" cy="302.13" r="180.37"/>
<path style="fill:#00C2C7;" d="M270.551,302.133c0-133.377-90.179-180.375-90.179-180.375v180.375H270.551z"/>
<g>
	<path style="fill:#64DDE0;" d="M90.193,302.133H0c0.002,99.611,80.75,180.362,180.359,180.369
		C179.817,482.218,90.193,435.112,90.193,302.133z"/>
	<path style="fill:#64DDE0;" d="M90.193,302.133h90.179V121.758C180.372,121.758,90.193,168.756,90.193,302.133z"/>
</g>
<path style="fill:#00A5AD;" d="M180.372,121.758c0,0,90.179,46.998,90.179,180.375h90.193c0-0.001,0-0.002,0-0.003
	C360.744,202.513,279.989,121.758,180.372,121.758z"/>
<path style="fill:#00C2C7;" d="M180.372,302.133H90.193c0,132.979,89.624,180.085,90.167,180.369c0.004,0,0.008,0,0.013,0V302.133
	H180.372z"/>
<path style="fill:#028C8C;" d="M180.385,482.502c99.61-0.007,180.358-80.758,180.359-180.369h-90.193
	C270.551,435.112,180.927,482.218,180.385,482.502z"/>
<path style="fill:#00A5AD;" d="M270.551,302.133h-90.179v180.369c0.004,0,0.008,0,0.013,0
	C180.927,482.218,270.551,435.112,270.551,302.133z"/>
<g>
</g>
<g>
</g>
<g>
</g>
<g>
</g>
<g>
</g>
<g>
</g>
<g>
</g>
<g>
</g>
<g>
</g>
<g>
</g>
<g>
</g>
<g>
</g>
<g>
</g>
<g>
</g>
<g>
</g>
</svg>
